<?xml version="1.0" encoding="UTF-8"?>
<svg xmlns="http://www.w3.org/2000/svg" xmlns:xlink="http://www.w3.org/1999/xlink" width="500pt" height="500pt" viewBox="0 0 500 500" version="1.1">
<g id="surface1">
<path style=" stroke:none;fill-rule:nonzero;fill:rgb(100%,100%,100%);fill-opacity:1;" d="M 109 197.101562 L 109 211.199219 L 106.699219 209.550781 C 99.042969 204.066406 91.601562 202.777344 82.699219 205.390625 C 71.832031 208.585938 66 219.101562 66 235.5 C 66 256.5 76.175781 268.28125 93 266.757812 C 99.601562 266.160156 104.167969 264.066406 107.96875 259.898438 L 110.699219 256.898438 L 111.851562 261.449219 L 113 266 L 131 266 L 131 183 L 109 183 Z M 102.5 221.175781 C 106.300781 222.917969 108.230469 226.699219 108.746094 233.398438 C 109.398438 241.898438 107.5625 246.941406 102.898438 249.425781 C 99.640625 251.164062 98.699219 251.25 95 250.144531 C 89.320312 248.445312 87.65625 244.5 88.144531 233.898438 C 88.421875 227.898438 88.9375 225.714844 90.484375 224 C 93.972656 220.125 98.101562 219.15625 102.5 221.175781 "/>
<path style=" stroke:none;fill-rule:nonzero;fill:rgb(100%,100%,100%);fill-opacity:1;" d="M 274 190 L 274 197 L 296 197 L 296 183 L 274 183 L 274 190 "/>
<path style=" stroke:none;fill-rule:nonzero;fill:rgb(100%,100%,100%);fill-opacity:1;" d="M 377 224.5 L 377 266 L 399 266 L 399 183 L 377 183 L 377 224.5 "/>
<path style=" stroke:none;fill-rule:nonzero;fill:rgb(100%,100%,100%);fill-opacity:1;" d="M 156.5 204.976562 C 146.898438 207.078125 141.550781 210.558594 138.921875 216.398438 C 135.527344 223.9375 135.601562 224 148 224 C 157.699219 224 158.964844 223.789062 159.5 222.101562 C 161.355469 216.214844 175.703125 217.101562 177.332031 223.199219 C 178.785156 228.648438 178.699219 228.703125 167.699219 229.316406 C 149.800781 230.304688 143.078125 232.726562 138.277344 239.898438 C 136.488281 242.566406 136 244.699219 136 249.800781 C 136 262.207031 141.398438 266.5 157 266.5 C 165.800781 266.5 166.972656 266.257812 172.898438 263.199219 L 179.300781 259.898438 L 181.898438 262.308594 C 186.75 266.800781 195.898438 268.28125 204.300781 265.933594 C 207.964844 264.910156 208 264.851562 208 259.851562 L 208 254.800781 L 210.800781 257.800781 C 216.855469 264.289062 228.699219 267.675781 241.800781 266.664062 C 254.699219 265.671875 261.214844 262.777344 265.820312 256 C 267.902344 252.9375 268.15625 251.601562 267.851562 245.300781 C 267.558594 239.300781 267.085938 237.648438 265.003906 235.398438 C 261.429688 231.53125 256 229.40625 243.800781 227.097656 C 232.300781 224.925781 229 223.675781 229 221.5 C 229 216 244.253906 215.542969 245.679688 221 C 246.15625 222.828125 247.101562 223 256.601562 223 C 268.101562 223 268.253906 222.890625 265.636719 216.699219 C 263.839844 212.445312 260.601562 209.578125 254.5 206.84375 C 250.316406 204.96875 247.699219 204.59375 238.5 204.558594 C 226.800781 204.515625 221.285156 205.660156 216 209.230469 C 210.640625 212.855469 208.652344 216.300781 208.226562 222.699219 C 207.464844 234.113281 213.800781 239.359375 232.699219 242.96875 C 244.300781 245.183594 247 246.324219 247 249 C 247 255.601562 229.628906 255.601562 227.535156 249 C 226.953125 247.160156 226.050781 247 216.449219 247 L 206 247 L 206.601562 249.5 C 207.105469 251.601562 206.816406 252 204.800781 252 C 200.417969 252 200 250.5 200 234.800781 C 200 226.699219 199.527344 218.84375 198.949219 217.300781 C 195.878906 209.128906 186.800781 204.953125 171 204.441406 C 165.199219 204.253906 158.710938 204.492188 156.5 204.976562 Z M 178 241.898438 C 178 249.152344 173.699219 253 165.601562 253 C 160.601562 253 158 251.117188 158 247.5 C 158 242.800781 164.601562 239.402344 174.300781 239.109375 C 177.800781 239.007812 178 239.15625 178 241.898438 "/>
<path style=" stroke:none;fill-rule:nonzero;fill:rgb(100%,100%,100%);fill-opacity:1;" d="M 325 205.402344 C 314.199219 208.371094 307.554688 214.023438 304.550781 222.800781 C 302.527344 228.699219 302.503906 242.246094 304.5 248.101562 C 308.964844 261.175781 323 268.074219 342.300781 266.671875 C 351.601562 265.996094 357.84375 264.066406 362.699219 260.363281 C 366.632812 257.367188 370 251.199219 370 247 L 370 244 L 349.5 244 L 348.019531 247.199219 C 345.984375 251.605469 342.699219 253.125 336.199219 252.675781 C 329.601562 252.214844 326.105469 249.15625 325.269531 243.101562 L 324.699219 239 L 370.300781 239 L 369.824219 231.199219 C 368.933594 216.699219 361.496094 208.128906 347.199219 205.121094 C 340.398438 203.691406 330.78125 203.8125 325 205.402344 Z M 342.898438 219.441406 C 345.589844 220.84375 348 224.699219 348 227.601562 C 348 228.746094 345.898438 229 336.398438 229 L 324.800781 229 L 325.5 226.199219 C 327.273438 219.101562 335.851562 215.769531 342.898438 219.441406 "/>
<path style=" stroke:none;fill-rule:nonzero;fill:rgb(100%,100%,100%);fill-opacity:1;" d="M 274 235.5 L 274 266 L 296 266 L 296 205 L 274 205 L 274 235.5 "/>
<path style=" stroke:none;fill-rule:nonzero;fill:rgb(100%,100%,100%);fill-opacity:1;" d="M 408 254.5 L 408 266 L 431 266 L 431 243 L 408 243 L 408 254.5 "/>
<path style=" stroke:none;fill-rule:nonzero;fill:rgb(100%,100%,100%);fill-opacity:1;" d="M 344.679688 286.101562 C 343.601562 291.5 343.910156 293 346.101562 293 C 349.101562 293 351.992188 291.179688 352.933594 288.699219 C 354.234375 285.28125 352.5 283 348.601562 283 C 345.699219 283 345.226562 283.375 344.679688 286.101562 Z M 350.5 287.5 C 350.5 289.800781 349.988281 290.570312 348.300781 290.796875 C 345.898438 291.117188 345.566406 290.199219 346.640625 286.199219 C 347.550781 282.804688 350.5 283.800781 350.5 287.5 "/>
<path style=" stroke:none;fill-rule:nonzero;fill:rgb(100%,100%,100%);fill-opacity:1;" d="M 355.679688 286.101562 C 354.441406 292.300781 354.726562 293 358.5 293 C 360.398438 293 362 292.542969 362 292 C 362 291.460938 360.800781 291 359.398438 291 C 356.214844 291 356.699219 288.820312 360.101562 287.871094 C 362.398438 287.226562 362.40625 287.195312 360.300781 287.109375 C 357.09375 286.972656 357.5 284.226562 360.800781 283.714844 C 363.050781 283.371094 362.898438 283.273438 359.898438 283.148438 C 356.601562 283.011719 356.246094 283.257812 355.679688 286.101562 "/>
<path style=" stroke:none;fill-rule:nonzero;fill:rgb(100%,100%,100%);fill-opacity:1;" d="M 365.449219 285.398438 C 365.746094 286.800781 366.246094 289.152344 366.527344 290.5 C 367.351562 294.382812 369.421875 293.5 372.394531 288 C 373.910156 285.199219 374.636719 283 374.050781 283 C 373.480469 283 371.992188 284.949219 370.800781 287.25 L 368.601562 291.5 L 368.050781 287.601562 C 367.753906 285.5 366.898438 283.492188 366.199219 283.25 C 365.300781 282.9375 365.070312 283.601562 365.449219 285.398438 "/>
<path style=" stroke:none;fill-rule:nonzero;fill:rgb(100%,100%,100%);fill-opacity:1;" d="M 376 284.851562 C 376 285.847656 375.722656 288.148438 375.398438 289.851562 C 374.816406 292.910156 374.898438 293 378.398438 293 C 380.398438 293 382 292.554688 382 292 C 382 291.460938 380.800781 291 379.398438 291 C 375.914062 291 376.800781 288.664062 380.601562 287.832031 L 383.5 287.199219 L 380.699219 287.089844 C 376.699219 286.929688 377.101562 284.238281 381.199219 283.71875 C 384.074219 283.355469 383.949219 283.28125 380.25 283.148438 C 376.75 283.027344 376 283.328125 376 284.851562 "/>
<path style=" stroke:none;fill-rule:nonzero;fill:rgb(100%,100%,100%);fill-opacity:1;" d="M 385 284.851562 C 385 285.847656 384.722656 288.148438 384.398438 289.851562 C 383.816406 292.910156 383.898438 293 387.398438 293 C 389.398438 293 391 292.554688 391 292 C 391 291.441406 389.898438 291 388.5 291 C 386.125 291 386.03125 290.800781 386.648438 287 C 387.089844 284.300781 386.925781 283 386.148438 283 C 385.527344 283 385 283.851562 385 284.851562 "/>
<path style=" stroke:none;fill-rule:nonzero;fill:rgb(100%,100%,100%);fill-opacity:1;" d="M 395 284.5 C 394.355469 285.308594 393.800781 287.199219 393.800781 288.601562 C 393.800781 293.101562 398.519531 294.480469 402 291 C 405.675781 287.324219 404 283 398.898438 283 C 397.398438 283 395.667969 283.667969 395 284.5 Z M 401.398438 285.601562 C 402.277344 287.859375 400.300781 291 398 291 C 396.457031 291 396 290.351562 396 288.148438 C 396 286.550781 396.308594 284.992188 396.699219 284.601562 C 397.910156 283.390625 400.773438 284 401.398438 285.601562 "/>
<path style=" stroke:none;fill-rule:nonzero;fill:rgb(100%,100%,100%);fill-opacity:1;" d="M 406 284.851562 C 406 285.847656 405.722656 288.148438 405.398438 289.851562 C 405.019531 291.851562 405.203125 293 405.898438 293 C 406.503906 293 407 292.101562 407 291 C 407 289.582031 407.699219 289 409.398438 289 C 412.199219 289 414.480469 286.601562 413.675781 284.5 C 413.320312 283.570312 411.75 283 409.550781 283 C 406.75 283 406 283.390625 406 284.851562 Z M 411.394531 284.699219 C 412.292969 285.605469 410 288.152344 408.898438 287.472656 C 407.523438 286.617188 407.898438 284 409.398438 284 C 410.101562 284 411.019531 284.324219 411.394531 284.699219 "/>
<path style=" stroke:none;fill-rule:nonzero;fill:rgb(100%,100%,100%);fill-opacity:1;" d="M 415.550781 286.25 C 415.191406 288.050781 414.675781 290.28125 414.398438 291.25 C 413.980469 292.71875 414.550781 293 417.949219 293 C 420.148438 293 422 292.542969 422 292 C 422 291.441406 420.898438 291 419.5 291 C 415.914062 291 416.199219 288.066406 419.800781 287.914062 L 422.5 287.800781 L 419.800781 287.171875 C 416.605469 286.425781 417.300781 284.453125 421 283.765625 C 422.917969 283.40625 422.648438 283.265625 419.851562 283.148438 C 416.449219 283.011719 416.15625 283.222656 415.550781 286.25 "/>
<path style=" stroke:none;fill-rule:nonzero;fill:rgb(100%,100%,100%);fill-opacity:1;" d="M 424.679688 286.101562 C 423.78125 290.601562 423.890625 293 425 293 C 425.550781 293 426 292.101562 426 291 C 426 289.898438 426.675781 289 427.5 289 C 428.324219 289 429 289.898438 429 291 C 429 292.101562 429.605469 293 430.351562 293 C 431.269531 293 431.554688 292.199219 431.25 290.5 C 430.996094 289.101562 431.339844 287.339844 432.03125 286.5 C 433.761719 284.390625 432.398438 283 428.601562 283 C 425.699219 283 425.226562 283.375 424.679688 286.101562 Z M 430.300781 285.5 C 430.414062 286.070312 429.75 286.628906 428.75 286.800781 C 427.648438 286.988281 427 286.507812 427 285.5 C 427 283.800781 429.960938 283.800781 430.300781 285.5 "/>
</g>
</svg>
