<?xml version="1.0" encoding="iso-8859-1"?>
<!-- Generator: Adobe Illustrator 25.2.3, SVG Export Plug-In . SVG Version: 6.00 Build 0)  -->
<svg version="1.1" baseProfile="basic" id="Layer_1"
	 xmlns="http://www.w3.org/2000/svg" xmlns:xlink="http://www.w3.org/1999/xlink" x="0px" y="0px" viewBox="0 0 48 48"
	 xml:space="preserve">
<linearGradient id="SVGID_1_" gradientUnits="userSpaceOnUse" x1="12.8662" y1="5.8854" x2="41.8357" y2="53.0184">
	<stop  offset="0" style="stop-color:#21AD64"/>
	<stop  offset="1" style="stop-color:#088242"/>
</linearGradient>
<polygon style="fill:url(#SVGID_1_);" points="37,6 11,6 6,11 6,37 11,42 37,42 42,37 42,11 "/>
<path style="opacity:0.05;" d="M26.5,35c-0.552,0-1-0.449-1-1c0-3.83,1.617-7.441,4.457-10c-2.84-2.559-4.457-6.17-4.457-10
	c0-0.551,0.448-1,1-1h5c0.552,0,1,0.449,1,1c0,3.584,2.916,6.5,6.5,6.5c0.552,0,1,0.449,1,1v5c0,0.551-0.448,1-1,1
	c-3.584,0-6.5,2.916-6.5,6.5c0,0.551-0.448,1-1,1H26.5z"/>
<path style="opacity:0.07;" d="M26.5,34.5c-0.276,0-0.5-0.224-0.5-0.5c0-3.905,1.713-7.514,4.723-10C27.713,21.514,26,17.905,26,14
	c0-0.276,0.224-0.5,0.5-0.5h5c0.276,0,0.5,0.224,0.5,0.5c0,3.86,3.141,7,7,7c0.276,0,0.5,0.224,0.5,0.5v5c0,0.276-0.224,0.5-0.5,0.5
	c-3.859,0-7,3.14-7,7c0,0.276-0.224,0.5-0.5,0.5H26.5z"/>
<path style="fill:#FFFFFF;" d="M31.5,14h-5c0,4.091,1.984,7.718,5.032,10c-3.047,2.282-5.032,5.909-5.032,10h5
	c0-4.136,3.364-7.5,7.5-7.5v-5C34.864,21.5,31.5,18.136,31.5,14z"/>
<path style="opacity:0.05;" d="M16.5,35c-0.552,0-1-0.449-1-1c0-3.584-2.916-6.5-6.5-6.5c-0.552,0-1-0.449-1-1v-5
	c0-0.551,0.448-1,1-1c3.584,0,6.5-2.916,6.5-6.5c0-0.551,0.448-1,1-1h5c0.552,0,1,0.449,1,1c0,3.83-1.617,7.441-4.457,10
	c2.84,2.559,4.457,6.17,4.457,10c0,0.551-0.448,1-1,1H16.5z"/>
<path style="opacity:0.07;" d="M16.5,34.5c-0.276,0-0.5-0.224-0.5-0.5c0-3.86-3.141-7-7-7c-0.276,0-0.5-0.224-0.5-0.5v-5
	C8.5,21.224,8.724,21,9,21c3.859,0,7-3.14,7-7c0-0.276,0.224-0.5,0.5-0.5h5c0.276,0,0.5,0.224,0.5,0.5c0,3.905-1.713,7.514-4.723,10
	C20.287,26.486,22,30.095,22,34c0,0.276-0.224,0.5-0.5,0.5H16.5z"/>
<path style="fill:#FFFFFF;" d="M21.5,14h-5c0,4.136-3.364,7.5-7.5,7.5v5c4.136,0,7.5,3.364,7.5,7.5h5c0-4.091-1.984-7.718-5.032-10
	C19.516,21.718,21.5,18.091,21.5,14z"/>
</svg>